<?xml version="1.0" encoding="iso-8859-1"?>
<!-- Generator: Adobe Illustrator 19.0.0, SVG Export Plug-In . SVG Version: 6.00 Build 0)  -->
<svg xmlns="http://www.w3.org/2000/svg" xmlns:xlink="http://www.w3.org/1999/xlink" version="1.1" id="Capa_1" x="0px" y="0px" viewBox="0 0 512 512" style="enable-background:new 0 0 512 512;" xml:space="preserve" width="512px" height="512px">
<g>
	<g>
		<path d="M0,0v512h512V0H0z M126.4,30h162.8v66.4H126.4V30z M289.2,289.2H126.4v-66.4h162.8V289.2z M385.6,319.2v66.4H222.8v-66.4    H385.6z M222.8,192.8v-66.4h162.8v66.4H222.8z M30,30h66.4v66.4H30V30z M30,126.4h162.8v66.4H30V126.4z M30,222.8h66.4v66.4H30    V222.8z M30,319.2h162.8v66.4H30V319.2z M96.4,482H30v-66.4h66.4V482z M289.2,482H126.4v-66.4h162.8V482z M482,482H319.2v-66.4    H482V482z M482,385.6h-66.4v-66.4H482V385.6z M482,289.2H319.2v-66.4H482V289.2z M482,192.8h-66.4v-66.4H482V192.8z M482,96.4    H319.2V30H482V96.4z" fill="#428bca"/>
	</g>
</g>
<g>
</g>
<g>
</g>
<g>
</g>
<g>
</g>
<g>
</g>
<g>
</g>
<g>
</g>
<g>
</g>
<g>
</g>
<g>
</g>
<g>
</g>
<g>
</g>
<g>
</g>
<g>
</g>
<g>
</g>
</svg>
