<?xml version="1.0" encoding="UTF-8"?>
<svg viewBox="0 0 1052.49997820923 743.74998969346" xmlns="http://www.w3.org/2000/svg" xmlns:xlink="http://www.w3.org/1999/xlink">
 <defs>
  <linearGradient id="a">
   <stop stop-color="#c3c3c3" offset="0"/>
   <stop stop-color="#f2f2f2" offset="1"/>
  </linearGradient>
  <linearGradient id="f" x1=".96154" x2=".03077" y1=".96094" y2=".03125">
   <stop stop-color="#305cb7" offset="0"/>
   <stop stop-color="#f2f2f2" offset="1"/>
  </linearGradient>
  <linearGradient id="g" x1=".96154" x2=".03077" y1=".96094" y2=".03125">
   <stop stop-color="#9fa4af" offset="0"/>
   <stop stop-color="#f2f2f2" offset="1"/>
  </linearGradient>
  <linearGradient id="h" x1=".96154" x2=".03077" y1=".96094" y2=".03125">
   <stop stop-color="#30b74b" offset="0"/>
   <stop stop-color="#f2f2f2" offset="1"/>
  </linearGradient>
  <linearGradient id="b" x1=".41156" x2=".59524" y1=".08108" y2=".91892">
   <stop stop-color="#ddd" offset="0"/>
   <stop stop-color="#fff" offset="1"/>
  </linearGradient>
  <linearGradient id="i" x1=".96154" x2=".03077" y1=".96094" y2=".03125">
   <stop stop-color="#d22235" offset="0"/>
   <stop stop-color="#f1f1f1" offset="1"/>
  </linearGradient>
  <linearGradient id="j" x1=".03012" x2=".96988" y1=".03906" y2=".96875">
   <stop stop-color="#8bb7df" offset="0"/>
   <stop stop-color="#2a6092" offset=".76209"/>
   <stop stop-color="#375e82" offset="1"/>
  </linearGradient>
  <linearGradient id="e" x1=".05405" x2=".93243" y1=".03125" y2=".95313" xlink:href="#a"/>
  <linearGradient id="c" x1=".03012" x2=".96988" y1=".03906" y2=".96875" xlink:href="#a"/>
  <linearGradient id="d" x1=".39116" x2=".68707" y1=".04348" y2=".92391" xlink:href="#a"/>
 </defs>
 <g transform="matrix(2.2508 0 0 2.2028 -678.73 -248.92)" fill-rule="evenodd">
  <path transform="matrix(.613 0 0 .613 245.37 131.67)" d="m376.81 146.4h83.395a3.0818 3.1488 0 0 1 3.0818 3.1488v153.1a3.0818 3.1488 0 0 1 -3.0818 3.1488h-83.395a3.0818 3.1488 0 0 1 -3.0818 -3.1488v-153.1a3.0818 3.1488 0 0 1 3.0818 -3.1488" fill="url(#e)" stroke="#c1c1c1" stroke-width="3.0587"/>
  <path transform="matrix(.613 0 0 .613 245.37 131.67)" d="m383.15 153.42h71.772a3.0818 3.1488 0 0 1 3.0818 3.1488v10.594a3.0818 3.1488 0 0 1 -3.0818 3.1488h-71.772a3.0818 3.1488 0 0 1 -3.0818 -3.1488v-10.594a3.0818 3.1488 0 0 1 3.0818 -3.1488" fill="url(#b)" stroke="#c1c1c1" stroke-width="3.0587"/>
  <path transform="matrix(.32552 0 0 .32552 326.62 155.15)" d="m549.07 389.36a10.492 10.492 0 1 0 -20.984 0 10.492 10.492 0 1 0 20.984 0z" fill="url(#f)" stroke="#9c9c9c" stroke-width="3.6645"/>
  <path transform="matrix(.25355 0 0 .25389 365.41 192.43)" d="m549.07 389.36a10.492 10.492 0 1 0 -20.984 0 10.492 10.492 0 1 0 20.984 0z" fill="url(#g)" stroke="#9c9c9c" stroke-width="3.6645"/>
  <path transform="matrix(.1775 0 0 .1774 398.94 220.4)" d="m549.07 389.36a10.492 10.492 0 1 0 -20.984 0 10.492 10.492 0 1 0 20.984 0z" fill="url(#h)" stroke="#9c9c9c" stroke-width="3.6645"/>
  <path transform="matrix(.1775 0 0 .1774 413.94 220.4)" d="m549.07 389.36a10.492 10.492 0 1 0 -20.984 0 10.492 10.492 0 1 0 20.984 0z" fill="url(#i)" stroke="#9c9c9c" stroke-width="3.6645"/>
  <path transform="translate(40.273 34.156)" d="m441.79147,265.76401h40.66314a.31485,.32171 0 0,1 .31485.32171v.75004a.31485,.32171 0 0,1 -.31485.32171h-40.66314a.31485,.32171 0 0,1 -.31485-.32171v-.75004a.31485,.32171 0 0,1 .31485-.32171" fill="#ababab"/>
  <path transform="translate(40.273 34.156)" d="m441.79147,268.26401h40.66314a.31485,.32171 0 0,1 .31485.32171v.75004a.31485,.32171 0 0,1 -.31485.32171h-40.66314a.31485,.32171 0 0,1 -.31485-.32171v-.75004a.31485,.32171 0 0,1 .31485-.32171" fill="#ababab"/>
  <path transform="translate(40.273 34.156)" d="m441.79147,270.76401h40.66314a.31485,.32171 0 0,1 .31485.32171v.75004a.31485,.32171 0 0,1 -.31485.32171h-40.66314a.31485,.32171 0 0,1 -.31485-.32171v-.75004a.31485,.32171 0 0,1 .31485-.32171" fill="#ababab"/>
  <path transform="translate(40.273 34.156)" d="m441.79147,273.26401h40.66314a.31485,.32171 0 0,1 .31485.32171v.75004a.31485,.32171 0 0,1 -.31485.32171h-40.66314a.31485,.32171 0 0,1 -.31485-.32171v-.75004a.31485,.32171 0 0,1 .31485-.32171" fill="#ababab"/>
  <path transform="translate(40.273 34.156)" d="m441.79147,275.76401h40.66314a.31485,.32171 0 0,1 .31485.32171v.75004a.31485,.32171 0 0,1 -.31485.32171h-40.66314a.31485,.32171 0 0,1 -.31485-.32171v-.75004a.31485,.32171 0 0,1 .31485-.32171" fill="#ababab"/>
  <path transform="translate(40.273 34.156)" d="m441.79147,278.26401h40.66314a.31485,.32171 0 0,1 .31485.32171v.75004a.31485,.32171 0 0,1 -.31485.32171h-40.66314a.31485,.32171 0 0,1 -.31485-.32171v-.75004a.31485,.32171 0 0,1 .31485-.32171" fill="#ababab"/>
  <path d="m480.24 240.72h43.997a1.8891 1.9302 0 0 1 1.8891 1.9302v6.4941a1.8891 1.9302 0 0 1 -1.8891 1.9302h-43.997a1.8891 1.9302 0 0 1 -1.8891 -1.9302v-6.4941a1.8891 1.9302 0 0 1 1.8891 -1.9302" fill="url(#b)" stroke="#c1c1c1" stroke-width="1.875"/>
  <path d="m480.24 255.72h43.997a1.8891 1.9302 0 0 1 1.8891 1.9302v6.4941a1.8891 1.9302 0 0 1 -1.8891 1.9302h-43.997a1.8891 1.9302 0 0 1 -1.8891 -1.9302v-6.4941a1.8891 1.9302 0 0 1 1.8891 -1.9302" fill="url(#b)" stroke="#c1c1c1" stroke-width="1.875"/>
  <path transform="translate(135.3 16.286)" d="m420.55 287.77h25.911v7.0866h-25.911z" fill="url(#d)" stroke="#bebebe" stroke-width="1.25"/>
  <path transform="translate(135.3 16.286)" d="m401.05 233.96h66.573a1.8891 1.9302 0 0 1 1.8891 1.9302v50.177a1.8891 1.9302 0 0 1 -1.8891 1.9302h-66.573a1.8891 1.9302 0 0 1 -1.8891 -1.9302v-50.177a1.8891 1.9302 0 0 1 1.8891 -1.9302" fill="url(#c)" stroke="#c4c4c4" stroke-width="1.875"/>
  <path transform="translate(135.3 16.286)" d="m406.9 238.46h54.869a1.8891 1.9302 0 0 1 1.8891 1.9302v41.188a1.8891 1.9302 0 0 1 -1.8891 1.9302h-54.869a1.8891 1.9302 0 0 1 -1.8891 -1.9302v-41.188a1.8891 1.9302 0 0 1 1.8891 -1.9302" fill="url(#j)" stroke="#c4c4c4" stroke-width="1.5631"/>
  <path transform="translate(135.3 16.286)" d="m402.97 294.58c-1.3626 0.05536-2.4707 1.3086-3.0754 2.3514l-7.5763 19.264c-1.1882 2.8336 0.60705 3.5982 4.433 3.709l74.546-0.18101c3.1385 0 7.1933-0.47121 5.4285-3.528l-7.3046-18.686c-0.83046-1.0268-2.4702-2.9296-4.8258-2.9296h-61.625z" fill="url(#c)" stroke="#c4c4c4" stroke-width="1.279"/>
  <g transform="matrix(.91615 0 0 1 47.77 -.54302)" fill="#bdbdbd">
   <path d="m534.40196,316.83197h70.3953a.34367,.32171 0 0,1 .34367.32171v.75004a.34367,.32171 0 0,1 -.34367.32171h-70.3953a.34367,.32171 0 0,1 -.34367-.32171v-.75004a.34367,.32171 0 0,1 .34367-.32171"/>
   <path d="m533.40648,319.33197h72.38635a.34367,.32171 0 0,1 .34367.32171v.75004a.34367,.32171 0 0,1 -.34367.32171h-72.38635a.34367,.32171 0 0,1 -.34367-.32171v-.75004a.34367,.32171 0 0,1 .34367-.32171"/>
   <path d="m532.5919,321.83197h74.01541a.34367,.32171 0 0,1 .34367.32171v.75004a.34367,.32171 0 0,1 -.34367.32171h-74.01541a.34367,.32171 0 0,1 -.34367-.32171v-.75004a.34367,.32171 0 0,1 .34367-.32171"/>
   <path d="m531.59636,324.33197h76.00648a.34367,.32171 0 0,1 .34367.32171v.75004a.34367,.32171 0 0,1 -.34367.32171h-76.00648a.34367,.32171 0 0,1 -.34367-.32171v-.75004a.34367,.32171 0 0,1 .34367-.32171"/>
   <path d="m530.69133,326.83197h77.81654a.34367,.32171 0 0,1 .34367.32171v.75004a.34367,.32171 0 0,1 -.34367.32171h-77.81654a.34367,.32171 0 0,1 -.34367-.32171v-.75004a.34367,.32171 0 0,1 .34367-.32171"/>
   <path d="m529.87681,329.33197h79.71711a.34367,.32171 0 0,1 .34367.32171v.75004a.34367,.32171 0 0,1 -.34367.32171h-79.71711a.34367,.32171 0 0,1 -.34367-.32171v-.75004a.34367,.32171 0 0,1 .34367-.32171"/>
   <path d="m535.30699,314.33197h68.58524a.34367,.32171 0 0,1 .34367.32171v.75004a.34367,.32171 0 0,1 -.34367.32171h-68.58524a.34367,.32171 0 0,1 -.34367-.32171v-.75004a.34367,.32171 0 0,1 .34367-.32171"/>
   <path d="m529.0623,331.83197h81.34616a.34367,.32171 0 0,1 .34367.32171v.75004a.34367,.32171 0 0,1 -.34367.32171h-81.34616a.34367,.32171 0 0,1 -.34367-.32171v-.75004a.34367,.32171 0 0,1 .34367-.32171"/>
  </g>
 </g>
</svg>
